<?xml version="1.0" standalone="no"?>
<!DOCTYPE svg PUBLIC "-//W3C//DTD SVG 20010904//EN"
 "http://www.w3.org/TR/2001/REC-SVG-20010904/DTD/svg10.dtd">
<svg version="1.0" xmlns="http://www.w3.org/2000/svg"
 width="512.000000pt" height="512.000000pt" viewBox="0 0 512.000000 512.000000"
 preserveAspectRatio="xMidYMid meet">
<metadata>
Created by potrace 1.11, written by Peter Selinger 2001-2013
</metadata>
<g transform="translate(0.000000,512.000000) scale(0.100000,-0.100000)"
fill="#000000" stroke="none">
<path d="M1850 4940 c0 -5 7 -10 15 -10 8 0 15 5 15 10 0 6 -7 10 -15 10 -8 0
-15 -4 -15 -10z"/>
<path d="M1890 4940 c0 -5 10 -10 23 -10 18 0 19 2 7 10 -19 13 -30 13 -30 0z"/>
<path d="M2025 4942 c-38 -2 -72 -7 -75 -11 -7 -11 -107 -41 -136 -41 -13 0
-29 -6 -36 -13 -6 -8 -23 -11 -37 -9 -15 3 -23 1 -18 -3 7 -9 -52 -39 -60 -31
-3 2 5 7 16 11 12 3 21 11 21 16 0 17 -42 -1 -85 -36 -22 -17 -89 -56 -150
-85 -250 -121 -392 -257 -503 -483 -33 -67 -65 -138 -73 -157 -7 -19 -18 -42
-26 -51 -7 -8 -17 -35 -22 -60 -10 -45 -22 -90 -39 -144 -5 -16 -7 -43 -5 -60
3 -16 -1 -73 -7 -125 -7 -52 -14 -153 -15 -225 -6 -261 -17 -460 -27 -472 -6
-7 -8 -75 -5 -172 2 -88 0 -186 -4 -218 -5 -38 -4 -60 3 -64 7 -5 5 -54 -8
-165 -17 -141 -21 -296 -13 -476 2 -42 4 -45 15 -30 12 16 13 16 14 0 0 -9 -4
-19 -9 -23 -5 -3 -8 -40 -6 -83 4 -72 3 -75 -9 -43 -11 32 -12 26 -10 -65 1
-54 -2 -120 -7 -146 -4 -25 -11 -82 -14 -125 -9 -107 9 -83 25 34 21 153 27
96 8 -74 -18 -153 -20 -188 -18 -264 1 -19 -6 -55 -15 -80 -9 -24 -28 -107
-41 -184 -14 -77 -29 -159 -34 -183 -13 -54 -13 -249 -1 -257 12 -7 18 55 10
123 -3 29 -2 55 3 58 4 3 8 17 8 32 0 15 6 36 14 47 18 26 37 95 26 95 -5 0
-11 -8 -14 -17 -10 -32 4 79 15 119 8 33 13 38 25 27 9 -7 12 -20 8 -31 -6
-20 -15 -138 -14 -193 0 -16 -4 -45 -9 -63 -7 -24 -7 -31 2 -25 7 4 20 9 30
10 17 3 17 2 0 -24 -10 -15 -12 -24 -5 -20 17 11 15 -8 -3 -23 -18 -15 -20
-51 -2 -47 7 1 11 -6 10 -18 -8 -60 -11 -76 -21 -88 -6 -7 -9 -23 -5 -35 3
-13 1 -22 -6 -22 -6 0 -11 8 -11 18 0 13 -2 14 -9 3 -5 -7 -6 -31 -4 -52 4
-28 1 -45 -10 -57 -9 -9 -16 -20 -16 -25 -1 -15 -32 -67 -40 -67 -4 0 -12 -16
-18 -35 l-11 -35 929 0 928 0 -4 40 c-2 24 0 38 6 35 5 -4 10 6 10 22 2 23 2
24 6 5 8 -39 26 -25 19 15 -5 27 -4 34 3 23 8 -11 10 -8 8 17 -1 17 -5 29 -9
26 -10 -5 -10 10 -2 31 11 30 23 16 30 -34 9 -66 22 -64 18 3 -2 46 0 54 19
62 24 11 25 32 0 27 -8 -2 -12 1 -8 7 10 17 43 13 53 -5 7 -12 11 -13 17 -4 4
6 2 17 -4 23 -13 13 -15 31 -2 23 8 -6 81 20 81 28 0 2 -14 2 -31 -1 -17 -2
-29 -1 -26 4 3 5 21 10 40 11 30 2 35 -1 39 -23 5 -24 -8 -31 -44 -27 -3 1 -9
-6 -12 -14 -5 -12 -2 -15 10 -10 9 3 27 9 42 13 21 5 24 3 19 -11 -5 -12 -3
-16 5 -13 7 2 12 12 10 22 -3 16 -2 17 12 2 9 -8 16 -20 16 -26 0 -6 5 -11 11
-11 6 0 9 7 5 15 -3 8 0 16 7 17 7 0 17 2 22 2 6 1 15 5 22 9 6 4 14 3 18 -3
6 -9 -14 -14 -42 -11 -7 1 -13 -2 -13 -7 0 -5 18 -9 40 -8 32 2 45 -4 66 -25
21 -22 29 -25 39 -16 16 15 8 30 -12 23 -8 -3 -11 -2 -8 3 3 5 1 12 -4 16 -6
3 -8 12 -5 20 4 8 10 12 15 9 8 -5 13 9 10 29 -2 12 24 8 38 -5 10 -11 11 -10
5 5 -5 15 0 17 39 16 26 -1 44 -6 41 -10 -2 -4 4 -6 16 -4 11 2 22 0 25 -6 4
-5 15 -9 26 -9 11 0 18 4 14 9 -3 5 11 15 30 21 19 6 35 18 35 26 0 16 17 19
22 3 2 -6 14 -8 32 -3 27 6 28 8 11 20 -16 12 -16 13 3 11 12 0 19 -3 17 -6
-3 -2 0 -10 6 -18 9 -9 8 -13 0 -13 -6 0 -11 -4 -11 -10 0 -14 16 -12 32 4 8
7 27 21 43 30 17 10 22 15 13 12 -10 -3 -20 -1 -23 4 -4 6 5 10 19 10 14 0 26
3 26 8 0 10 100 55 108 47 3 -3 -7 -17 -23 -31 l-30 -25 34 20 c18 11 41 17
49 13 11 -4 14 -1 9 11 -7 18 8 24 18 7 7 -12 -14 -44 -23 -35 -3 3 -12 -1
-21 -9 -9 -7 -33 -16 -54 -19 -20 -3 -44 -13 -53 -21 -9 -9 -20 -14 -25 -11
-5 4 -9 1 -9 -5 0 -7 8 -9 23 -4 12 4 27 7 34 7 7 0 10 4 7 8 -6 10 61 23 81
15 8 -3 14 -1 12 5 -1 6 8 18 21 26 20 14 22 14 22 -1 0 -9 -7 -16 -15 -16 -8
0 -15 -5 -15 -11 0 -6 14 -9 33 -8 21 2 31 -1 29 -9 -1 -7 12 -15 28 -19 24
-4 30 -10 28 -27 -2 -12 2 -20 9 -19 6 2 15 -6 18 -17 4 -11 13 -20 21 -20 8
0 14 -5 14 -11 0 -5 4 -8 9 -4 5 3 12 1 16 -5 10 -17 25 -11 18 7 -4 11 -3 14
6 9 6 -4 9 -16 6 -27 -9 -28 3 -41 27 -28 18 9 19 8 13 -10 -4 -12 -2 -21 4
-21 9 0 16 35 13 62 -1 3 5 11 12 18 11 9 20 4 42 -25 17 -22 30 -32 34 -25 4
7 18 -2 38 -24 28 -32 94 -76 114 -76 5 0 8 7 8 15 0 21 27 30 44 16 7 -6 21
-8 31 -5 11 4 22 1 29 -7 6 -8 22 -23 34 -34 l23 -19 -10 26 c-13 35 5 29 60
-21 28 -25 54 -38 82 -42 23 -3 49 -8 57 -10 10 -3 14 2 14 14 -2 17 0 17 22
2 32 -21 30 -8 -6 34 -43 51 -16 88 30 39 28 -31 25 -9 -5 32 -45 61 -29 67
39 15 26 -19 48 -35 51 -35 3 0 -39 44 -92 97 -70 69 -93 98 -82 100 15 4 14
10 -7 50 -14 25 -23 47 -21 50 3 2 20 -9 38 -24 32 -26 33 -26 14 -3 -11 14
-30 36 -42 50 -14 16 -21 34 -18 48 2 13 -1 22 -8 22 -8 0 -8 3 2 9 9 6 10 11
2 15 -22 14 -11 28 17 22 15 -3 21 -3 15 0 -22 10 -15 37 8 31 43 -11 13 28
-44 57 -31 16 -55 31 -52 34 2 3 -1 14 -7 25 -9 17 -8 19 7 13 15 -5 16 -4 5
8 -21 26 -6 38 19 15 l24 -23 -7 27 c-5 20 -2 29 9 33 12 5 13 9 4 20 -9 12
-6 13 21 7 24 -4 31 -3 26 5 -4 7 -1 12 9 12 9 0 14 -4 11 -9 -3 -5 1 -12 10
-15 24 -9 26 -8 19 16 -6 17 -4 20 11 14 10 -4 43 -9 72 -13 67 -6 69 15 2 34
-23 7 -44 14 -46 16 -6 6 85 -1 95 -7 5 -3 20 -2 33 3 12 6 17 10 10 10 -7 1
-11 5 -7 11 12 20 -45 42 -117 45 -101 4 -119 14 -95 52 5 7 -1 17 -14 24 -17
9 -19 13 -8 20 10 6 11 11 3 19 -19 19 -5 49 25 52 15 2 26 9 26 18 0 9 -8 14
-20 13 -11 -2 -27 1 -34 6 -12 8 -11 13 8 28 14 12 20 24 16 35 -7 16 -57 34
-83 29 -10 -1 -9 5 4 23 9 14 12 26 6 26 -6 0 -14 -5 -17 -10 -9 -15 -27 0
-21 17 3 8 1 23 -5 35 -8 15 -7 24 7 39 9 10 25 19 34 19 10 0 23 7 30 15 7 9
19 14 27 11 7 -3 13 -1 13 4 0 6 7 10 15 10 9 0 31 15 49 32 53 52 98 90 133
110 17 11 36 32 42 49 9 26 8 29 -13 29 -12 0 -27 -5 -34 -12 -9 -9 -12 -9
-12 1 0 11 -15 13 -70 8 -42 -3 -72 -2 -76 4 -4 6 -11 6 -20 -2 -11 -9 -14 -7
-14 9 0 12 9 23 20 27 22 7 27 24 8 26 -7 1 -20 2 -28 3 -26 2 -18 39 10 46
14 3 25 12 25 20 0 8 11 17 25 18 14 2 31 9 38 15 23 18 -5 24 -71 14 -65 -10
-146 2 -199 29 -15 8 -36 14 -48 14 -11 0 -20 6 -20 14 0 8 -10 16 -22 18 -15
2 -24 11 -26 26 -2 12 -9 22 -17 22 -14 0 -30 37 -49 115 -8 32 -17 49 -25 47
-9 -2 -11 3 -8 13 4 8 2 15 -4 15 -12 0 -39 61 -39 90 0 11 -9 33 -20 48 -40
54 -81 199 -84 294 0 20 -4 34 -7 32 -8 -5 -19 21 -19 42 0 9 5 12 12 8 8 -5
9 -2 3 12 -4 10 -14 42 -21 69 -8 28 -18 59 -23 70 -16 34 -23 77 -11 70 14
-9 13 -2 -15 110 -39 151 -83 291 -120 380 -19 44 -48 121 -65 170 -18 50 -54
126 -80 170 -101 170 -166 278 -190 315 -14 21 -47 74 -74 117 -27 43 -77 116
-111 163 -33 47 -71 101 -82 120 -12 19 -31 41 -42 48 -12 7 -21 18 -21 26 0
15 -118 156 -184 219 -43 43 -159 123 -221 154 -63 32 -219 59 -258 45 -32
-12 -107 -6 -107 8 0 8 -54 30 -72 30 -5 0 -6 -4 -3 -10 7 -12 -36 -14 -50 -2
-6 4 -41 6 -80 4z m563 -693 c2 -13 -3 -15 -23 -12 -25 5 -31 14 -18 27 12 11
38 2 41 -15z m-74 -21 c4 6 21 7 43 1 21 -4 40 -8 43 -8 3 0 7 -7 8 -16 3 -13
-1 -15 -18 -10 -18 6 -21 4 -14 -6 5 -8 9 -18 9 -24 0 -5 12 -10 28 -9 17 0
27 -5 27 -14 0 -9 7 -13 19 -9 15 3 18 0 14 -17 -4 -21 -4 -21 9 -1 12 19 13
18 18 -13 4 -28 23 -46 26 -24 5 35 18 72 25 72 5 0 11 -12 15 -27 18 -82 36
-113 46 -81 4 12 48 -52 48 -71 0 -10 12 -15 35 -12 6 0 23 -27 38 -62 26 -61
47 -90 160 -225 28 -34 54 -67 56 -73 1 -6 14 -22 28 -37 27 -29 68 -102 65
-115 -1 -4 10 -29 24 -55 62 -110 83 -152 78 -152 -4 0 -1 -7 6 -15 7 -8 25
-70 40 -137 16 -68 51 -212 79 -320 108 -421 93 -614 -77 -1003 -44 -99 -90
-213 -102 -254 -35 -111 -117 -208 -220 -261 -122 -62 -303 -83 -410 -46 -66
22 -220 96 -238 113 -7 7 -18 13 -23 13 -11 0 -113 62 -117 71 -2 4 -11 5 -22
2 -10 -3 -27 4 -38 15 -20 20 -63 46 -94 58 -10 3 -20 15 -23 25 -4 11 -10 17
-14 14 -5 -2 -15 3 -24 13 -9 9 -32 34 -51 55 -20 21 -36 40 -36 43 0 11 -28
33 -34 27 -4 -4 0 13 9 36 18 51 19 65 5 56 -5 -3 -10 1 -10 9 0 9 -4 16 -8
16 -4 0 -13 14 -19 30 -10 26 -9 32 10 46 12 9 15 14 7 11 -12 -4 -16 2 -14
23 1 19 -6 36 -22 51 -13 12 -24 26 -24 30 0 5 -20 28 -45 53 -72 71 -88 117
-93 279 -4 125 -2 143 17 188 12 27 19 54 16 59 -3 6 -2 10 4 10 5 0 12 -6 14
-12 3 -7 6 -2 6 11 1 20 5 22 26 17 37 -9 48 1 30 27 -17 25 -20 41 -5 32 6
-3 10 0 10 8 0 18 21 27 65 27 37 0 65 8 65 19 0 4 -13 6 -30 3 -47 -7 -35 4
33 28 34 13 66 26 70 30 5 4 10 27 10 51 2 38 5 44 22 41 11 -2 36 -15 56 -28
29 -20 44 -24 71 -19 84 16 76 39 -38 107 -95 58 -140 62 -254 22 -41 -14 -85
-28 -97 -31 -12 -3 -27 -11 -34 -19 -19 -23 -45 0 -47 43 -2 35 1 40 33 57 20
11 44 21 53 22 9 1 31 4 47 8 17 3 59 8 95 12 35 3 85 9 109 14 25 4 49 6 53
4 5 -3 8 2 8 10 0 8 10 16 23 18 20 3 20 5 -12 25 -30 19 -46 22 -130 19 -53
-2 -107 -6 -121 -10 -46 -12 -155 -16 -170 -7 -11 8 -14 32 -12 118 1 59 6
124 12 143 5 19 10 51 10 70 0 74 150 485 182 498 4 2 8 9 8 16 0 8 10 24 23
37 13 13 37 42 55 65 45 59 116 114 151 118 17 2 53 14 81 28 34 17 53 21 60
14 7 -7 10 -7 10 1 0 6 9 9 20 6 24 -6 73 5 66 15 -2 4 4 8 15 8 10 0 19 -4
19 -9 0 -5 6 -5 13 1 8 7 18 7 27 2 27 -17 34 -11 14 12 -13 16 -14 19 -2 10
9 -8 19 -9 22 -4z m-714 -602 c-12 -31 -24 -56 -26 -56 -10 0 4 57 21 89 25
50 28 31 5 -33z m-1010 -133 c-11 -17 -11 -17 -6 0 3 10 7 26 7 35 1 15 2 15
6 0 2 -10 -1 -25 -7 -35z m-18 -603 c-2 -22 -6 -40 -8 -40 -2 0 -4 18 -4 40 0
22 3 40 8 40 4 0 6 -18 4 -40z m1218 -14 c-5 -5 -27 -10 -49 -11 -26 0 -37 -4
-34 -12 3 -7 -2 -13 -10 -13 -9 0 -23 -7 -32 -16 -9 -9 -19 -14 -22 -10 -3 3
-12 1 -20 -5 -25 -22 -13 7 15 33 33 31 67 49 107 58 34 8 62 -7 45 -24z m53
7 c-7 -2 -19 -2 -25 0 -7 3 -2 5 12 5 14 0 19 -2 13 -5z m82 -3 c3 -6 -1 -7
-9 -4 -18 7 -21 14 -7 14 6 0 13 -4 16 -10z m-1380 -804 c0 -114 -3 -149 -11
-137 -6 9 -10 59 -9 121 3 149 4 170 13 170 4 0 7 -69 7 -154z m3226 77 c11
-27 27 -61 35 -77 8 -16 11 -32 8 -35 -4 -3 -9 -1 -11 6 -2 6 -17 38 -34 69
-27 54 -36 84 -24 84 3 0 15 -21 26 -47z m-2033 -409 c10 -7 13 -18 8 -30 -7
-19 -8 -19 -21 0 -8 10 -12 22 -10 27 3 4 1 10 -5 14 -5 3 -10 14 -10 23 1 14
2 14 12 -3 6 -11 18 -25 26 -31z m-1191 -186 c-3 -7 -5 -2 -5 12 0 14 2 19 5
13 2 -7 2 -19 0 -25z m-8 -382 c-9 -8 -10 -7 -5 7 3 10 7 33 8 50 1 28 2 28 5
-7 3 -22 -1 -43 -8 -50z m-12 -68 c-3 -8 -6 -5 -6 6 -1 11 2 17 5 13 3 -3 4
-12 1 -19z m3611 -11 c2 -11 -3 -17 -16 -17 -26 0 -33 10 -19 26 15 17 31 13
35 -9z m22 -27 c0 -5 -8 -10 -17 -10 -15 0 -16 2 -3 10 19 12 20 12 20 0z
m250 -164 c0 -3 -4 -8 -10 -11 -5 -3 -10 -1 -10 4 0 6 5 11 10 11 6 0 10 -2
10 -4z m-280 -86 c0 -5 -2 -10 -4 -10 -3 0 -8 5 -11 10 -3 6 -1 10 4 10 6 0
11 -4 11 -10z m-1135 -409 c-3 -6 -14 -11 -23 -11 -15 1 -15 2 2 15 21 16 32
13 21 -4z m-200 -11 c3 -5 2 -10 -4 -10 -5 0 -13 5 -16 10 -3 6 -2 10 4 10 5
0 13 -4 16 -10z m-55 -20 c-13 -24 -25 -27 -16 -4 4 10 2 14 -6 11 -7 -2 -12
-9 -11 -14 2 -11 -3 -12 -64 -16 -23 -1 -48 -8 -55 -15 -17 -17 -31 -15 -45 7
-16 26 -5 33 23 14 17 -11 24 -12 24 -3 0 7 6 10 14 7 8 -3 17 0 20 8 3 9 15
12 35 9 18 -3 31 -1 31 5 0 6 14 11 30 11 28 0 30 -2 20 -20z m185 1 c-3 -5 0
-11 7 -14 7 -2 0 -2 -17 0 -21 3 -26 1 -16 -5 9 -7 10 -12 2 -16 -6 -4 -23 2
-37 13 l-25 20 33 4 c18 2 39 5 46 5 7 1 11 -2 7 -7z m-212 -44 c2 -7 -6 -18
-19 -24 -18 -8 -24 -8 -28 4 -4 8 -4 19 0 24 8 13 41 11 47 -4z m-2191 -49
c-7 -7 -12 -8 -12 -2 0 14 12 26 19 19 2 -3 -1 -11 -7 -17z m3728 -108 c6 -11
7 -20 2 -20 -10 0 -32 21 -32 32 0 16 19 8 30 -12z"/>
<path d="M2966 3471 c-4 -6 -21 -11 -37 -11 -22 0 -32 -6 -39 -25 -6 -15 -15
-23 -23 -19 -8 3 -22 -2 -31 -12 -10 -9 -32 -22 -49 -28 -96 -35 -204 -136
-203 -190 1 -39 16 -42 52 -11 16 14 32 25 36 25 12 0 79 48 98 70 9 11 22 20
27 20 6 0 18 10 29 21 25 29 95 59 139 61 19 1 33 4 30 6 -9 9 67 31 107 30
21 0 46 6 55 13 9 8 18 13 20 12 1 -2 6 -3 11 -2 15 2 -55 20 -108 29 -30 4
-67 11 -81 15 -16 4 -30 2 -33 -4z m11 -47 c-3 -3 -12 -4 -19 -1 -8 3 -5 6 6
6 11 1 17 -2 13 -5z"/>
<path d="M3120 3389 c0 -5 5 -7 10 -4 6 3 10 8 10 11 0 2 -4 4 -10 4 -5 0 -10
-5 -10 -11z"/>
<path d="M2948 3249 c-53 -12 -161 -63 -201 -93 -19 -15 -47 -46 -62 -71 -31
-47 -52 -62 -69 -45 -17 17 -31 11 -43 -20 -7 -18 -7 -30 -2 -30 6 0 7 -5 3
-11 -5 -8 1 -10 20 -7 22 4 29 1 36 -18 11 -28 13 -29 73 -8 47 16 76 37 37
27 -11 -3 -20 0 -20 6 0 6 4 11 8 11 4 0 13 15 20 33 l12 32 31 -32 c34 -37
37 -37 109 -22 61 13 84 41 78 94 -3 27 0 35 12 35 24 -1 53 -28 47 -44 -3 -8
1 -17 10 -20 12 -5 11 -10 -8 -26 -20 -16 -21 -19 -7 -20 10 0 38 20 64 45 25
25 52 45 59 45 10 0 13 11 11 38 -2 26 -7 36 -17 33 -26 -7 -119 -6 -119 2 0
4 6 7 13 8 6 0 1 4 -11 10 -13 5 -28 7 -33 3 -5 -3 -18 -7 -29 -10 -11 -2 -30
-6 -41 -9 -40 -8 -94 -28 -106 -38 -10 -7 -13 -4 -13 11 0 14 14 27 48 44 40
20 62 23 155 23 59 0 107 3 107 7 0 11 -62 28 -99 27 -20 -1 -53 -5 -73 -10z
m-78 -123 c0 -3 -4 -8 -10 -11 -5 -3 -10 -1 -10 4 0 6 5 11 10 11 6 0 10 -2
10 -4z m-245 -116 c3 -5 1 -10 -4 -10 -6 0 -11 5 -11 10 0 6 2 10 4 10 3 0 8
-4 11 -10z"/>
<path d="M2971 2996 c-10 -12 -8 -13 8 -9 12 3 18 9 15 14 -7 12 -10 11 -23
-5z"/>
<path d="M2796 2912 c-7 -12 17 -22 52 -22 24 1 25 2 9 11 -10 6 -21 8 -24 5
-4 -3 -12 -1 -19 5 -7 6 -14 6 -18 1z"/>
<path d="M2155 2670 c-16 -17 -16 -20 -3 -15 9 4 19 13 22 21 7 19 2 18 -19
-6z"/>
<path d="M2090 2625 c-7 -8 -8 -15 -2 -15 5 0 15 7 22 15 7 8 8 15 2 15 -5 0
-15 -7 -22 -15z"/>
<path d="M2885 2453 c-10 -73 -14 -82 -43 -97 -38 -20 -77 -65 -90 -103 -9
-26 -8 -31 4 -26 8 3 14 9 14 13 0 5 8 9 18 9 41 1 52 5 52 18 0 7 4 13 9 13
12 0 34 57 27 69 -9 14 20 68 43 81 28 15 104 -21 146 -69 11 -13 32 -37 48
-54 15 -16 27 -36 27 -43 0 -25 -54 -63 -176 -124 -67 -34 -125 -68 -128 -76
-3 -9 -10 -12 -16 -9 -6 3 -24 -3 -40 -15 -36 -26 -69 -36 -176 -55 -45 -8
-128 -26 -185 -40 -133 -32 -195 -33 -204 -4 -11 35 20 159 50 199 6 8 17 27
24 42 7 14 22 29 33 32 26 6 64 -8 71 -27 4 -10 13 -13 27 -10 15 4 19 2 14
-10 -8 -21 11 -30 60 -28 37 1 81 7 81 11 0 1 18 3 39 6 22 2 41 6 44 9 3 2
10 -2 16 -11 10 -13 12 -12 12 6 0 16 -5 20 -20 16 -21 -5 -55 9 -71 31 -12
16 -71 20 -141 9 -49 -8 -51 -7 -82 28 -17 20 -36 36 -42 36 -14 0 -40 -25
-40 -38 0 -5 -7 -15 -15 -22 -8 -7 -12 -16 -9 -21 3 -5 0 -9 -6 -9 -5 0 -21
-24 -34 -52 -13 -29 -52 -87 -87 -128 -52 -62 -63 -80 -62 -109 1 -20 7 -37
14 -40 7 -2 30 -22 52 -45 39 -40 40 -41 35 -13 -4 20 -2 25 5 18 6 -6 26 -11
45 -11 39 0 110 -37 118 -62 3 -10 9 -18 14 -18 17 0 22 21 8 37 -11 14 -11
15 2 11 9 -3 15 -18 15 -39 1 -30 6 -37 50 -60 28 -15 67 -30 87 -34 21 -4 41
-11 44 -16 7 -12 133 -8 141 4 3 4 10 3 17 -2 18 -15 99 -5 151 19 24 11 49
20 56 20 20 0 123 116 151 171 34 64 26 83 -13 32 -60 -79 -74 -93 -108 -109
-20 -9 -47 -25 -61 -34 -14 -9 -31 -15 -37 -13 -7 3 -13 0 -13 -6 0 -6 -3 -10
-7 -10 -15 3 -73 -14 -73 -20 0 -4 -8 -8 -17 -9 -109 -11 -134 -11 -174 4 -24
9 -57 20 -74 24 -16 4 -39 11 -49 16 -16 6 -18 4 -13 -12 5 -14 2 -12 -13 6
-22 28 -26 55 -7 47 43 -16 146 -30 232 -31 99 -1 101 0 182 41 45 24 99 60
120 82 64 66 117 130 133 159 29 52 31 54 45 42 9 -8 14 -3 19 21 11 55 87
219 102 219 12 0 20 -33 15 -62 0 -5 3 -8 9 -8 18 0 32 79 20 116 -7 20 -14
33 -17 30 -3 -3 -14 -1 -24 5 -10 5 -42 14 -71 19 -29 6 -82 19 -118 30 -36
11 -78 21 -93 23 -15 2 -38 15 -51 30 -13 15 -26 27 -29 27 -3 0 -9 -21 -12
-47z m-82 -188 c-3 -9 -8 -14 -10 -11 -3 3 -2 9 2 15 9 16 15 13 8 -4z m214
-197 c-3 -8 -6 -5 -6 6 -1 11 2 17 5 13 3 -3 4 -12 1 -19z m-7 -70 c0 -47 -5
-53 -37 -49 -8 1 -13 -9 -13 -23 0 -15 -9 -31 -20 -38 -11 -7 -20 -18 -20 -24
0 -17 -31 -40 -75 -55 -22 -8 -44 -19 -50 -26 -17 -19 -84 -33 -112 -22 -13 5
-40 9 -59 9 -23 0 -38 6 -46 20 -13 20 -13 20 -29 -2 -15 -19 -19 -20 -34 -8
-22 19 -51 61 -59 88 -6 19 -4 22 20 22 15 0 38 -10 51 -22 19 -17 23 -19 23
-5 0 24 30 50 44 37 9 -7 22 -1 46 20 23 21 44 30 67 30 39 0 87 22 103 47 8
13 13 14 16 6 3 -7 18 -13 33 -13 21 0 27 5 26 20 -1 11 -4 23 -8 26 -10 11
-8 24 3 24 6 0 10 -7 10 -15 0 -8 6 -15 14 -15 7 0 20 -7 27 -16 12 -14 15
-11 32 27 17 42 19 43 33 25 8 -11 14 -41 14 -68z"/>
<path d="M2875 1960 c3 -5 8 -10 11 -10 2 0 4 5 4 10 0 6 -5 10 -11 10 -5 0
-7 -4 -4 -10z"/>
<path d="M2766 1911 c-4 -7 -5 -15 -2 -18 9 -9 19 4 14 18 -4 11 -6 11 -12 0z"/>
<path d="M2700 2142 c0 -16 32 -12 37 5 3 7 -4 11 -16 10 -12 -1 -21 -7 -21
-15z"/>
<path d="M731 3024 c0 -11 3 -14 6 -6 3 7 2 16 -1 19 -3 4 -6 -2 -5 -13z"/>
<path d="M3810 2830 c0 -19 3 -21 12 -12 9 9 9 15 0 24 -9 9 -12 7 -12 -12z"/>
<path d="M701 1794 c0 -11 3 -14 6 -6 3 7 2 16 -1 19 -3 4 -6 -2 -5 -13z"/>
<path d="M711 1744 c0 -11 3 -14 6 -6 3 7 2 16 -1 19 -3 4 -6 -2 -5 -13z"/>
<path d="M671 1234 c0 -11 3 -14 6 -6 3 7 2 16 -1 19 -3 4 -6 -2 -5 -13z"/>
<path d="M617 1063 c-25 -106 -29 -143 -17 -143 5 0 10 15 10 33 0 17 7 63 15
101 8 38 13 71 11 73 -2 2 -11 -27 -19 -64z"/>
<path d="M4439 980 c13 -11 28 -20 35 -20 6 1 0 10 -13 20 -13 11 -28 20 -35
20 -6 -1 0 -10 13 -20z"/>
<path d="M592 855 c0 -16 2 -22 5 -12 2 9 2 23 0 30 -3 6 -5 -1 -5 -18z"/>
<path d="M665 319 c-4 -6 -5 -12 -2 -15 2 -3 7 2 10 11 7 17 1 20 -8 4z"/>
<path d="M2975 310 c-3 -5 -1 -10 4 -10 6 0 11 5 11 10 0 6 -2 10 -4 10 -3 0
-8 -4 -11 -10z"/>
<path d="M2951 281 c-10 -7 -7 -9 12 -8 14 1 23 5 20 10 -6 9 -15 9 -32 -2z"/>
<path d="M2630 245 c0 -8 2 -15 4 -15 2 0 6 7 10 15 3 8 1 15 -4 15 -6 0 -10
-7 -10 -15z"/>
<path d="M2501 98 c-1 -21 -6 -28 -21 -28 -11 0 -20 -4 -20 -9 0 -13 41 0 47
15 2 7 3 21 0 31 -3 12 -5 8 -6 -9z"/>
<path d="M2497 39 c7 -7 15 -10 18 -7 3 3 -2 9 -12 12 -14 6 -15 5 -6 -5z"/>
<path d="M2480 10 c0 -5 5 -10 11 -10 5 0 7 5 4 10 -3 6 -8 10 -11 10 -2 0 -4
-4 -4 -10z"/>
</g>
</svg>
